<svg xmlns="http://www.w3.org/2000/svg" viewBox="0 0 1174.05 265.25"><title>logo1</title><path d="M395.75,2.4c37.15,0,65.09,27.94,65.09,64.8,0,36.58-27.94,64.8-65.09,64.8H349.38v72H322.6V2.4Zm0,104.54c22.18,0,38.59-17,38.59-39.74,0-23-16.42-39.74-38.59-39.74H349.38v79.49ZM502.6,33.79a16.78,16.78,0,0,1-17-16.7,16.85,16.85,0,1,1,33.7,0A16.72,16.72,0,0,1,502.6,33.79ZM489.93,204V60H515V204ZM625,56.26c33.7,0,55.87,22.46,55.87,59.33V204H655.82V117c0-23.62-13.54-36.86-35.71-36.86-23,0-41.76,13.54-41.76,47.52V204H553.29V60h25.06V80.74C589,63.74,604.84,56.26,625,56.26ZM835.24,60H860V198c0,44.93-36,67.39-73.44,67.39-32.26,0-56.45-12.38-68.26-35.14l21.89-12.38c6.62,13.54,18.72,24.19,46.94,24.19,30,0,48.1-17,48.1-44.06V177.5c-11.52,17.57-30,28.8-54.14,28.8-40.9,0-73.44-33.12-73.44-75.17,0-41.76,32.54-74.88,73.44-74.88,24.19,0,42.62,10.94,54.14,28.51V60ZM784,182.4c29.09,0,51.26-22.18,51.26-51.26,0-28.8-22.18-51-51.26-51s-51.26,22.18-51.26,51C732.71,160.22,754.89,182.4,784,182.4ZM946.8,205.08c-28.21,0-45.63-20.8-41.08-48.88,4.42-27.17,26.91-46.28,53.56-46.28,19.37,0,31.59,9.36,38.35,22.36l-23.79,12.61c-3.25-5.85-9.1-9.49-16.9-9.49-12.35,0-23.14,9.23-25.35,22.1-2.08,11.83,4.29,22.1,17.16,22.1,8.06,0,13.91-4,18.59-10.14l21.58,13.65C979.56,196.89,964.48,205.08,946.8,205.08Zm126.36-59.93a33.18,33.18,0,0,1-18.2,24.44l11.7,33.28h-26l-9.36-28.6H1023l-5.07,28.6h-26l16.12-91h36.4C1062.76,111.87,1076.67,125.52,1073.16,145.15Zm-43.42-9.36-3,16.9h10.66c5.07.13,8.84-3,9.75-8.32s-1.82-8.58-7-8.58ZM1184.05,112l-16,91h-26l7.67-43.81-25.48,33.54h-2.34l-14.82-35.23-7.93,45.5h-26l16-91h26l13.65,37.31L1156.75,112h27.3Z" transform="translate(-10 -0.1)"/><polygon points="133 9.6 133 143.53 59.16 9.6 133 9.6" style="fill:#2096f3"/><polygon points="206.84 9.6 133 143.53 133 9.6 206.84 9.6" style="fill:#1d67bd"/><polygon points="266 43 133 256.21 133 163.56 199.49 43 266 43" style="fill:#afddff"/><polygon points="133 163.56 133 256.21 0 43 66.51 43 133 163.56" style="fill:#7dc5ff"/></svg>